<svg width="6916" height="329" viewBox="0 0 6916 329" fill="none" xmlns="http://www.w3.org/2000/svg">
<g clip-path="url(#clip0_17790_43462)">
<rect width="6916" height="329" fill="white"/>
<mask id="mask0_17790_43462" style="mask-type:luminance" maskUnits="userSpaceOnUse" x="0" y="0" width="6916" height="329">
<path d="M6916 0H0V329H6916V0Z" fill="white"/>
</mask>
<g mask="url(#mask0_17790_43462)">
<path d="M6916 0H0V329H6916V0Z" fill="white"/>
<path d="M39.2459 1H6876.75C6897.83 1 6915 18.92 6915 41.125V287.875C6915 310.08 6897.83 328 6876.75 328H39.2459C18.1668 328 1 310.08 1 287.875V41.125C1 18.92 18.1668 1 39.2459 1Z" fill="#1C1A1C" stroke="#1C1A1C" stroke-width="2"/>
<g opacity="0.8891">
<path d="M6648.31 22.4016C6637.42 19.2989 6626.01 25.4855 6622.9 36.1938C6619.75 46.9022 6626.01 58.1404 6636.85 61.2431C6647.73 64.3459 6659.15 58.1593 6662.25 47.4509C6665.41 36.7236 6659.15 25.4855 6648.31 22.4016ZM6639.96 50.6294C6635.03 49.2104 6632.18 44.1211 6633.6 39.2399C6635.07 34.3776 6640.22 31.5586 6645.2 32.9776C6650.13 34.3965 6652.97 39.4858 6651.55 44.3671C6650.08 49.2293 6644.89 52.0483 6639.96 50.6294Z" fill="#E6E6E6"/>
</g>
<g opacity="0.9136">
<path d="M5985.32 249.907C5983.06 239.766 5972.84 233.315 5962.53 235.528C5952.27 237.741 5945.74 247.807 5947.97 257.966C5950.23 268.107 5960.45 274.559 5970.75 272.345C5981.01 270.113 5987.54 260.048 5985.32 249.907ZM5958.18 255.753C5957.16 251.137 5960.14 246.558 5964.8 245.555C5969.46 244.553 5974.13 247.485 5975.1 252.082C5976.13 256.699 5973.15 261.277 5968.49 262.28C5963.82 263.302 5959.16 260.369 5958.18 255.753Z" fill="#E6E6E6"/>
<path d="M6015.66 245.906C6005.35 248.12 5998.82 258.185 6001.04 268.345C6003.31 278.485 6013.53 284.937 6023.83 282.724C6034.09 280.51 6040.67 270.445 6038.4 260.285C6036.14 250.126 6025.92 243.674 6015.66 245.906ZM6021.61 272.659C6016.9 273.661 6012.28 270.729 6011.26 266.131C6010.24 261.515 6013.22 256.936 6017.88 255.934C6022.54 254.931 6027.21 257.863 6028.23 262.461C6029.21 267.077 6026.27 271.656 6021.61 272.659Z" fill="#E6E6E6"/>
<path d="M5986.83 293.228L6010.73 224.158L5998.82 226.732L5974.97 295.802L5986.83 293.228Z" fill="#E6E6E6"/>
</g>
<g opacity="0.9196">
<path d="M6074.51 120.79C6077.98 102.827 6065.94 85.4322 6047.73 82.044C6029.52 78.6369 6011.88 90.486 6008.46 108.468C6005 126.431 6017.04 143.826 6035.25 147.214C6053.46 150.621 6071.05 138.753 6074.51 120.79ZM6026.45 111.818C6028.05 103.66 6036.05 98.2657 6044.35 99.8178C6052.61 101.37 6058.08 109.263 6056.48 117.44C6054.92 125.598 6046.93 130.993 6038.62 129.441C6030.36 127.889 6024.9 119.995 6026.45 111.818Z" fill="#E6E6E6"/>
<path d="M6126.39 134.911C6108.18 131.504 6090.55 143.353 6087.13 161.335C6083.66 179.298 6095.7 196.693 6113.91 200.081C6132.12 203.488 6149.76 191.62 6153.22 173.657C6156.64 155.694 6144.6 138.318 6126.39 134.911ZM6117.33 182.308C6109.03 180.756 6103.56 172.862 6105.16 164.685C6106.72 156.527 6114.71 151.133 6123.02 152.685C6131.28 154.237 6136.74 162.13 6135.19 170.307C6133.59 178.465 6125.59 183.86 6117.33 182.308Z" fill="#E6E6E6"/>
<path d="M6046.75 191.975L6133.63 96.3678L6112.58 92.4307L6025.7 188.038L6046.75 191.975Z" fill="#E6E6E6"/>
</g>
<g opacity="0.557">
<path d="M5273.87 159.864C5277.83 148.116 5271.3 135.402 5259.39 131.523C5247.44 127.645 5234.56 134.058 5230.61 145.826C5226.7 157.575 5233.23 170.289 5245.13 174.168C5257.08 178.027 5269.96 171.613 5273.87 159.864ZM5242.43 149.667C5244.2 144.332 5250.07 141.418 5255.48 143.159C5260.9 144.918 5263.88 150.688 5262.1 156.043C5260.33 161.378 5254.46 164.31 5249.04 162.551C5243.62 160.773 5240.65 155.002 5242.43 149.667Z" fill="#E6E6E6"/>
<path d="M5307.45 173.886C5295.55 170.007 5282.62 176.44 5278.72 188.189C5274.81 199.938 5281.29 212.651 5293.2 216.53C5305.14 220.408 5318.03 213.976 5321.98 202.227C5325.89 190.459 5319.4 177.764 5307.45 173.886ZM5297.1 204.895C5291.69 203.135 5288.71 197.364 5290.53 192.011C5292.31 186.675 5298.13 183.762 5303.59 185.502C5309.01 187.261 5311.94 193.032 5310.16 198.386C5308.39 203.74 5302.52 206.654 5297.1 204.895Z" fill="#E6E6E6"/>
<path d="M5248.87 205.231L5315.76 148.654L5301.99 144.168L5235.1 200.764L5248.87 205.231Z" fill="#E6E6E6"/>
</g>
<g opacity="0.145">
<path d="M5186.77 12.7284C5170.11 11.6306 5155.63 24.1043 5154.52 40.5341C5153.41 56.9639 5166.03 71.2358 5182.73 72.3337C5199.38 73.4315 5213.82 60.9577 5214.93 44.528C5216.04 28.0982 5203.43 13.8452 5186.77 12.7284ZM5183.79 56.0932C5176.2 55.5821 5170.47 49.1086 5171 41.6319C5171.49 34.1553 5178.06 28.4957 5185.66 28.9878C5193.21 29.4989 5198.94 35.9724 5198.45 43.4491C5197.96 50.9258 5191.39 56.5853 5183.79 56.0932Z" fill="#E6E6E6"/>
<path d="M5121.74 72.238L5189.03 -22.4982L5169.76 -23.7666L5102.46 70.9508L5121.74 72.238Z" fill="#E6E6E6"/>
</g>
<g opacity="0.6529">
<path d="M5084.83 189.083C5088.78 168.641 5075.15 148.823 5054.4 144.923C5033.7 141.005 5013.58 154.463 5009.63 174.906C5005.68 195.349 5019.36 215.166 5040.06 219.066C5060.8 222.965 5080.88 209.526 5084.83 189.083ZM5030.15 178.786C5031.97 169.492 5041.08 163.379 5050.54 165.158C5059.96 166.937 5066.13 175.947 5064.35 185.222C5062.53 194.516 5053.38 200.629 5043.96 198.85C5034.55 197.071 5028.37 188.08 5030.15 178.786Z" fill="#E6E6E6"/>
<path d="M5143.86 205.248C5123.16 201.348 5103.09 214.807 5099.13 235.249C5095.18 255.691 5108.82 275.51 5129.51 279.409C5150.26 283.308 5170.33 269.85 5174.29 249.408C5178.29 228.965 5164.65 209.166 5143.86 205.248ZM5133.42 259.193C5124.01 257.414 5117.83 248.404 5119.61 239.11C5121.43 229.816 5130.58 223.703 5140 225.482C5149.41 227.261 5155.59 236.271 5153.81 245.546C5151.99 254.84 5142.88 260.954 5133.42 259.193Z" fill="#E6E6E6"/>
<path d="M5053.11 270.059L5152.21 161.392L5128.23 156.887L5029.13 265.535L5053.11 270.059Z" fill="#E6E6E6"/>
</g>
<g opacity="0.6519">
<path d="M6460.24 19.8273C6450.07 20.2057 6442.12 28.6438 6442.52 38.6521C6442.87 48.6605 6451.45 56.4931 6461.62 56.1147C6471.74 55.7363 6479.7 47.2983 6479.3 37.2899C6478.94 27.3005 6470.37 19.4679 6460.24 19.8273ZM6461.22 46.2388C6456.6 46.4091 6452.73 42.8522 6452.51 38.2927C6452.33 33.752 6455.98 29.9114 6460.6 29.7411C6465.17 29.5708 6469.08 33.1277 6469.26 37.6872C6469.43 42.2279 6465.84 46.0685 6461.22 46.2388Z" fill="#E6E6E6"/>
<path d="M6408.71 3.26092C6398.54 3.63931 6390.59 12.0774 6390.99 22.0857C6391.34 32.0941 6399.92 39.9267 6410.09 39.5483C6420.22 39.1699 6428.17 30.7319 6427.77 20.7235C6427.41 10.7341 6418.84 2.90146 6408.71 3.26092ZM6409.69 29.6724C6405.07 29.8426 6401.2 26.2858 6400.98 21.7263C6400.8 17.1856 6404.45 13.3449 6409.07 13.1747C6413.64 13.0044 6417.55 16.5613 6417.73 21.1208C6417.91 25.6615 6414.31 29.5021 6409.69 29.6724Z" fill="#E6E6E6"/>
<path d="M6424.71 59.9167L6459.31 -1.61914L6447.58 -1.18389L6412.98 60.3521L6424.71 59.9167Z" fill="#E6E6E6"/>
<path d="M6605.08 34.7896L6665.79 -1.18682L6655.41 -6.67794L6594.7 29.2985L6605.08 34.7896Z" fill="#E6E6E6"/>
</g>
<path d="M6940.62 272.094C6941.02 261.329 6932.5 252.229 6921.57 251.813C6910.64 251.397 6901.4 259.797 6901 270.562C6900.56 281.327 6909.09 290.427 6920.01 290.862C6930.94 291.278 6940.18 282.86 6940.62 272.094ZM6911.8 270.978C6912.02 266.078 6916.19 262.256 6921.17 262.446C6926.14 262.635 6930.01 266.778 6929.83 271.659C6929.65 276.559 6925.43 280.381 6920.5 280.192C6915.48 280.022 6911.62 275.878 6911.8 270.978Z" fill="#E6E6E6"/>
<g opacity="0.9495">
<path d="M5600.97 23.2328C5584.62 19.0497 5567.83 28.7977 5563.57 44.9625C5559.35 61.1084 5569.21 77.6518 5585.6 81.8349C5601.99 86.0181 5618.78 76.27 5623 60.1052C5627.27 43.9404 5617.36 27.416 5600.97 23.2328ZM5589.82 65.8405C5582.36 63.9476 5577.87 56.4331 5579.78 49.0889C5581.69 41.7447 5589.33 37.3155 5596.75 39.2083C5604.21 41.1011 5608.7 48.6157 5606.79 55.9599C5604.88 63.3041 5597.24 67.7333 5589.82 65.8405Z" fill="#E6E6E6"/>
<path d="M5524.97 70.4594L5609.94 -11.4245L5590.98 -16.251L5506.05 65.6327L5524.97 70.4594Z" fill="#E6E6E6"/>
</g>
<g opacity="0.8603">
<path d="M6188.85 232.995C6187.38 219.897 6175.34 210.451 6162.06 211.909C6148.78 213.385 6139.23 225.235 6140.7 238.333C6142.21 251.431 6154.2 260.876 6167.48 259.419C6180.76 257.962 6190.36 246.094 6188.85 232.995ZM6153.8 236.895C6153.13 230.951 6157.49 225.556 6163.53 224.894C6169.57 224.231 6175.03 228.528 6175.7 234.471C6176.36 240.434 6172.01 245.81 6165.97 246.491C6159.97 247.134 6154.51 242.838 6153.8 236.895Z" fill="#E6E6E6"/>
<path d="M6227.67 231.862C6214.39 233.338 6204.79 245.188 6206.26 258.286C6207.77 271.384 6219.76 280.829 6233.04 279.372C6246.32 277.895 6255.92 266.046 6254.45 252.948C6252.94 239.85 6240.9 230.385 6227.67 231.862ZM6231.58 266.406C6225.53 267.068 6220.07 262.772 6219.4 256.828C6218.74 250.885 6223.09 245.49 6229.09 244.828C6235.13 244.165 6240.59 248.462 6241.3 254.405C6241.97 260.349 6237.62 265.743 6231.58 266.406Z" fill="#E6E6E6"/>
<path d="M6185.07 287.852L6224.34 203.811L6208.97 205.514L6169.7 289.556L6185.07 287.852Z" fill="#E6E6E6"/>
</g>
<g opacity="0.9882">
<path d="M6713.34 152.919C6715.16 141.132 6706.94 130.064 6694.99 128.229C6683.04 126.394 6671.8 134.51 6669.98 146.278C6668.12 158.064 6676.34 169.133 6688.28 170.968C6700.23 172.803 6711.47 164.705 6713.34 152.919ZM6681.8 148.094C6682.64 142.74 6687.75 139.051 6693.17 139.883C6698.59 140.716 6702.32 145.748 6701.48 151.102C6700.63 156.456 6695.57 160.146 6690.1 159.313C6684.69 158.481 6680.95 153.448 6681.8 148.094Z" fill="#E6E6E6"/>
<path d="M6747.49 161.032C6735.5 159.197 6724.31 167.314 6722.44 179.082C6720.58 190.868 6728.79 201.936 6740.74 203.771C6752.69 205.607 6763.93 197.49 6765.79 185.722C6767.66 173.935 6759.44 162.868 6747.49 161.032ZM6742.56 192.117C6737.14 191.284 6733.41 186.252 6734.26 180.898C6735.1 175.544 6740.21 171.854 6745.63 172.687C6751.05 173.519 6754.82 178.552 6753.98 183.906C6753.13 189.279 6748.03 192.949 6742.56 192.117Z" fill="#E6E6E6"/>
<path d="M6696.77 199.946L6751.36 135.741L6737.54 133.621L6682.95 197.826L6696.77 199.946Z" fill="#E6E6E6"/>
</g>
<g opacity="0.3181">
<path d="M5909.1 29.5312C5905.41 18.293 5893.15 12.1253 5881.74 15.7768C5870.37 19.4282 5864.1 31.5177 5867.79 42.7558C5871.52 53.9939 5883.78 60.1617 5895.15 56.5102C5906.57 52.8588 5912.83 40.7503 5909.1 29.5312ZM5879.07 39.1422C5877.38 34.034 5880.23 28.5284 5885.42 26.8825C5890.58 25.2175 5896.17 28.0365 5897.86 33.1448C5899.55 38.253 5896.66 43.7586 5891.51 45.4045C5886.31 47.0505 5880.76 44.2505 5879.07 39.1422Z" fill="#E6E6E6"/>
<path d="M5942.99 21.6635C5931.58 25.315 5925.31 37.4045 5929.04 48.6426C5932.73 59.8807 5944.99 66.0484 5956.41 62.3969C5967.78 58.7455 5974.04 46.656 5970.35 35.4179C5966.67 24.1798 5954.36 18.012 5942.99 21.6635ZM5952.72 51.2913C5947.57 52.9562 5941.97 50.1372 5940.28 45.0289C5938.59 39.9207 5941.48 34.4152 5946.63 32.7692C5951.83 31.1043 5957.43 33.9233 5959.07 39.0315C5960.76 44.1208 5957.92 49.6264 5952.72 51.2913Z" fill="#E6E6E6"/>
<path d="M5915.76 78.3727L5934.95 -2.39453L5921.76 1.82645L5902.61 82.5937L5915.76 78.3727Z" fill="#E6E6E6"/>
</g>
<g opacity="0.5325">
<path d="M5777.84 18.1259C5763.14 18.2962 5751.33 30.24 5751.5 44.7391C5751.68 59.2382 5763.76 70.898 5778.46 70.7277C5793.17 70.5573 5804.98 58.6135 5804.85 44.1145C5804.67 29.6154 5792.55 17.9555 5777.84 18.1259ZM5778.33 56.38C5771.62 56.4557 5766.12 51.1558 5766.03 44.5688C5765.98 37.9817 5771.36 32.5493 5778.02 32.4736C5784.68 32.3978 5790.19 37.6978 5790.28 44.2848C5790.37 50.8719 5784.99 56.3043 5778.33 56.38Z" fill="#E6E6E6"/>
<path d="M5724.99 74.7962L5777.35 -12.9365L5760.34 -12.7471L5708.02 74.9855L5724.99 74.7962Z" fill="#E6E6E6"/>
</g>
<g opacity="0.3947">
<path d="M6530.47 176.42C6530.51 160.804 6517.67 148.046 6501.86 147.989C6486 147.933 6473.08 160.577 6473.03 176.193C6472.99 191.809 6485.78 204.566 6501.64 204.623C6517.45 204.68 6530.38 192.036 6530.47 176.42ZM6488.67 176.25C6488.71 169.151 6494.58 163.397 6501.77 163.435C6508.97 163.473 6514.83 169.265 6514.79 176.363C6514.74 183.461 6508.88 189.215 6501.68 189.178C6494.49 189.158 6488.67 183.348 6488.67 176.25Z" fill="#E6E6E6"/>
<path d="M6576.26 180.321C6560.4 180.264 6547.48 192.908 6547.43 208.524C6547.39 224.14 6560.18 236.897 6576.04 236.954C6591.85 237.011 6604.78 224.367 6604.87 208.751C6604.91 193.135 6592.07 180.377 6576.26 180.321ZM6576.08 221.509C6568.89 221.49 6563.07 215.679 6563.11 208.581C6563.16 201.482 6569.02 195.728 6576.22 195.766C6583.41 195.785 6589.23 201.596 6589.19 208.694C6589.19 215.792 6583.28 221.546 6576.08 221.509Z" fill="#E6E6E6"/>
<path d="M6518.34 240.455L6576.26 146.855L6557.96 146.779L6500.04 240.38L6518.34 240.455Z" fill="#E6E6E6"/>
</g>
<g opacity="0.2653">
<path d="M5435.9 191.416C5431.64 171.03 5411.38 157.856 5390.73 162.021C5370.07 166.204 5356.7 186.173 5360.92 206.559C5365.14 226.945 5385.4 240.119 5406.1 235.955C5426.75 231.771 5440.12 211.802 5435.9 191.416ZM5381.4 202.433C5379.44 193.177 5385.53 184.091 5394.95 182.198C5404.32 180.306 5413.51 186.287 5415.47 195.562C5417.38 204.817 5411.29 213.903 5401.92 215.796C5392.5 217.689 5383.31 211.689 5381.4 202.433Z" fill="#E6E6E6"/>
<path d="M5496.71 184.185C5476.05 188.349 5462.68 208.337 5466.9 228.723C5471.12 249.109 5491.42 262.283 5512.08 258.119C5532.73 253.936 5546.1 233.966 5541.88 213.58C5537.62 193.195 5517.36 180.021 5496.71 184.185ZM5507.86 237.96C5498.49 239.853 5489.29 233.872 5487.34 224.597C5485.43 215.341 5491.51 206.255 5500.88 204.363C5510.3 202.469 5519.49 208.451 5521.4 217.726C5523.36 226.982 5517.27 236.067 5507.86 237.96Z" fill="#E6E6E6"/>
<path d="M5437.81 278.164L5487.43 140.536L5463.57 145.363L5413.91 282.99L5437.81 278.164Z" fill="#E6E6E6"/>
</g>
<g opacity="0.7581">
<path d="M5643.83 180.282C5649.65 161.448 5638.86 141.441 5619.76 135.686C5600.66 129.932 5580.36 140.57 5574.54 159.423C5568.72 178.256 5579.47 198.263 5598.62 204.018C5617.72 209.753 5637.97 199.115 5643.83 180.282ZM5593.46 165.101C5596.08 156.545 5605.32 151.7 5613.98 154.312C5622.69 156.924 5627.58 166.029 5624.96 174.584C5622.29 183.14 5613.05 187.985 5604.39 185.373C5595.68 182.742 5590.8 173.657 5593.46 165.101Z" fill="#E6E6E6"/>
<path d="M5697.71 201.425C5678.66 195.67 5658.36 206.308 5652.5 225.161C5646.68 243.994 5657.47 264.002 5676.57 269.756C5695.67 275.51 5715.97 264.872 5721.79 246.02C5727.61 227.186 5716.81 207.179 5697.71 201.425ZM5682.34 251.111C5673.68 248.499 5668.75 239.395 5671.42 230.839C5674.04 222.284 5683.28 217.438 5691.94 220.05C5700.64 222.662 5705.53 231.767 5702.91 240.322C5700.24 248.897 5691.01 253.724 5682.34 251.111Z" fill="#E6E6E6"/>
<path d="M5605.59 253.269L5710.06 160.994L5687.99 154.331L5583.51 246.625L5605.59 253.269Z" fill="#E6E6E6"/>
</g>
<g opacity="0.2757">
<path d="M5405.75 19.0136C5387.72 14.5087 5369.33 25.2979 5364.75 43.0905C5360.18 60.8831 5371.1 79.0164 5389.14 83.5403C5407.17 88.0452 5425.56 77.2561 5430.18 59.4635C5434.76 41.6708 5423.78 23.5186 5405.75 19.0136ZM5393.71 65.937C5385.5 63.8927 5380.52 55.64 5382.61 47.5575C5384.7 39.4752 5393.05 34.5538 5401.26 36.617C5409.44 38.6613 5414.41 46.914 5412.32 54.9964C5410.28 63.0788 5401.89 67.9812 5393.71 65.937Z" fill="#E6E6E6"/>
<path d="M5322.38 71.3502L5415.39 -19.1648L5394.56 -24.3701L5301.55 66.126L5322.38 71.3502Z" fill="#E6E6E6"/>
</g>
<g opacity="0.4199">
<path d="M6893.41 124.393C6892.25 112.304 6881.33 103.393 6869.07 104.547C6856.81 105.682 6847.79 116.447 6848.94 128.536C6850.1 140.626 6861.03 149.537 6873.29 148.383C6885.54 147.248 6894.56 136.483 6893.41 124.393ZM6861.07 127.401C6860.54 121.915 6864.62 117.015 6870.22 116.485C6875.77 115.974 6880.75 120.023 6881.28 125.51C6881.81 130.996 6877.68 135.896 6872.13 136.426C6866.53 136.937 6861.6 132.888 6861.07 127.401Z" fill="#E6E6E6"/>
<path d="M6929.16 123.971C6916.9 125.106 6907.89 135.871 6909.04 147.96C6910.2 160.05 6921.12 168.961 6933.38 167.807C6945.64 166.672 6954.7 155.906 6953.5 143.817C6952.35 131.728 6941.42 122.817 6929.16 123.971ZM6932.23 155.869C6926.68 156.379 6921.7 152.35 6921.17 146.844C6920.64 141.357 6924.77 136.457 6930.32 135.928C6935.87 135.417 6940.85 139.466 6941.38 144.952C6941.91 150.439 6937.82 155.339 6932.23 155.869Z" fill="#E6E6E6"/>
<path d="M6889.01 174.888L6926.59 98.0576L6912.42 99.3827L6874.8 176.213L6889.01 174.888Z" fill="#E6E6E6"/>
</g>
<g opacity="0.3159">
<path d="M5828.7 192.344C5832.79 180.122 5826.04 166.879 5813.6 162.849C5801.21 158.819 5787.79 165.479 5783.71 177.72C5779.62 189.942 5786.37 203.185 5798.76 207.215C5811.2 211.245 5824.62 204.585 5828.7 192.344ZM5795.97 181.711C5797.83 176.149 5803.96 173.122 5809.6 174.958C5815.24 176.792 5818.31 182.809 5816.44 188.371C5814.58 193.934 5808.49 196.961 5802.85 195.125C5797.21 193.29 5794.1 187.274 5795.97 181.711Z" fill="#E6E6E6"/>
<path d="M5863.62 206.953C5851.22 202.923 5837.81 209.582 5833.72 221.823C5829.64 234.045 5836.39 247.289 5848.78 251.319C5861.17 255.348 5874.63 248.689 5878.72 236.448C5882.8 224.207 5876.05 210.982 5863.62 206.953ZM5852.87 239.21C5847.22 237.375 5844.12 231.359 5845.98 225.796C5847.85 220.234 5853.98 217.207 5859.62 219.042C5865.26 220.877 5868.32 226.893 5866.46 232.456C5864.59 238.018 5858.51 241.045 5852.87 239.21Z" fill="#E6E6E6"/>
<path d="M5802.63 239.548L5872.28 180.7L5857.93 176.024L5788.33 234.891L5802.63 239.548Z" fill="#E6E6E6"/>
</g>
<g opacity="0.1767">
<path d="M6361.23 196.171C6359.86 185.065 6349.6 177.119 6338.36 178.463C6327.08 179.806 6319.04 189.909 6320.37 201.015C6321.74 212.12 6332.01 220.066 6343.24 218.723C6354.53 217.399 6362.61 207.277 6361.23 196.171ZM6331.52 199.709C6330.9 194.657 6334.58 190.06 6339.69 189.455C6344.8 188.849 6349.46 192.463 6350.08 197.514C6350.71 202.566 6347.06 207.163 6341.91 207.768C6336.8 208.355 6332.14 204.76 6331.52 199.709Z" fill="#E6E6E6"/>
<path d="M6394.15 194.971C6382.91 196.315 6374.83 206.418 6376.2 217.523C6377.53 228.629 6387.79 236.575 6399.08 235.232C6410.31 233.889 6418.4 223.767 6417.02 212.68C6415.69 201.574 6405.43 193.628 6394.15 194.971ZM6397.74 224.259C6392.59 224.864 6387.93 221.25 6387.31 216.199C6386.73 211.147 6390.37 206.55 6395.48 205.945C6400.63 205.339 6405.3 208.953 6405.92 214.004C6406.5 219.056 6402.85 223.653 6397.74 224.259Z" fill="#E6E6E6"/>
<path d="M6358.39 242.766L6391.13 171.179L6378.16 172.712L6345.38 244.318L6358.39 242.766Z" fill="#E6E6E6"/>
</g>
<g opacity="0.4577">
<path d="M6288.21 39.3605C6277.64 38.0929 6268.04 45.5282 6266.75 55.915C6265.47 66.3017 6273.02 75.7614 6283.54 77.029C6294.12 78.2966 6303.71 70.8613 6305 60.4746C6306.24 50.0878 6298.69 40.6092 6288.21 39.3605ZM6284.79 66.7558C6280.04 66.1882 6276.62 61.8746 6277.19 57.1637C6277.77 52.4527 6282.12 49.0662 6286.92 49.6527C6291.67 50.2202 6295.14 54.5339 6294.52 59.2448C6293.98 63.9368 6289.63 67.3234 6284.79 66.7558Z" fill="#E6E6E6"/>
<path d="M6244.55 8.2648C6233.98 6.99721 6224.39 14.4325 6223.1 24.8193C6221.81 35.206 6229.36 44.6657 6239.89 45.9333C6250.46 47.2009 6260.06 39.7656 6261.34 29.3789C6262.59 18.9921 6255.04 9.51349 6244.55 8.2648ZM6241.13 35.6601C6236.38 35.0925 6232.96 30.7789 6233.54 26.068C6234.12 21.357 6238.47 17.9705 6243.27 18.557C6248.02 19.1245 6251.48 23.4382 6250.86 28.1491C6250.33 32.8411 6245.97 36.2277 6241.13 35.6601Z" fill="#E6E6E6"/>
<path d="M6244.9 74.9264L6290.83 17.0815L6278.66 15.624L6232.69 73.4689L6244.9 74.9264Z" fill="#E6E6E6"/>
</g>
<path d="M3191.4 178.949C3191.4 182.959 3190.56 186.573 3188.9 189.793C3187.23 193.008 3185.11 195.738 3182.53 197.978C3181.09 199.134 3179.5 200.166 3177.75 201.07C3175.99 201.973 3174.11 202.735 3172.1 203.348C3168.55 204.361 3163.97 204.865 3158.34 204.865H3125.23V124.14H3155.01C3157.8 124.14 3160.24 124.192 3162.34 124.301C3164.44 124.411 3166.21 124.591 3167.64 124.843L3167.53 124.791C3169.25 125.01 3170.92 125.395 3172.53 125.956C3174.14 126.518 3175.59 127.141 3176.88 127.825C3180.04 129.742 3182.45 132.125 3184.14 134.983C3185.82 137.837 3186.67 141.019 3186.67 144.524C3186.67 147.597 3186.06 150.45 3184.84 153.09C3183.62 155.73 3181.86 158.041 3179.57 160.029C3183.26 161.765 3186.15 164.196 3188.25 167.32C3190.34 170.445 3191.4 174.321 3191.4 178.949ZM3160.17 149.509C3160.17 148.282 3159.93 147.297 3159.47 146.555C3159.01 145.813 3158.4 145.247 3157.64 144.848C3156.89 144.448 3156.03 144.196 3155.06 144.087C3154.1 143.977 3153.09 143.925 3152.05 143.925V153.627C3153.81 153.409 3155.22 153.218 3156.28 153.057C3157.33 152.895 3158.15 152.676 3158.72 152.405C3159.29 152.134 3159.68 151.773 3159.88 151.321C3160.07 150.874 3160.17 150.27 3160.17 149.509ZM3163.99 178.621C3163.99 176.776 3163.61 175.415 3162.86 174.526C3162.1 173.641 3161.15 173.052 3159.98 172.766C3158.82 172.476 3157.53 172.362 3156.11 172.414C3154.7 172.467 3153.34 172.495 3152.05 172.495V185.07C3153.41 185.07 3154.59 185.061 3155.6 185.042C3156.6 185.023 3157.43 184.999 3158.07 184.961C3159.14 184.818 3160.05 184.6 3160.79 184.309C3161.52 184.019 3162.13 183.634 3162.61 183.144C3163.1 182.654 3163.45 182.041 3163.66 181.299C3163.88 180.566 3163.99 179.672 3163.99 178.621Z" fill="white"/>
<path d="M3254.97 204.861H3198.27V124.14H3225.2V184.476H3254.97V204.861Z" fill="white"/>
<path d="M3261.11 204.861L3287.33 124.145H3314.1L3340.17 204.861H3312.59L3308.08 189.627H3292.87C3291.97 192.157 3291.19 194.697 3290.5 197.241C3289.82 199.791 3289.07 202.33 3288.24 204.856H3261.11V204.861ZM3303.08 170.707L3300.23 158.888L3296.85 170.707H3303.08Z" fill="white"/>
<path d="M3379.01 206.32C3366.69 206.32 3357.01 202.615 3349.99 195.205C3346.41 191.409 3343.76 186.981 3342.04 181.926C3340.31 176.865 3339.46 171.082 3339.46 164.58C3339.46 152.076 3342.99 141.993 3350.04 134.331H3349.99C3356.98 126.56 3366.67 122.674 3379.07 122.674C3382.22 122.674 3385.05 122.864 3387.56 123.245C3390.07 123.625 3392.43 124.12 3394.66 124.733C3395.69 125.095 3396.72 125.456 3397.75 125.818C3398.77 126.179 3399.68 126.54 3400.51 126.902C3401.34 127.263 3402.14 127.644 3402.93 128.039C3403.72 128.438 3404.52 128.833 3405.35 129.232L3405.3 129.18C3405.37 129.218 3405.46 129.28 3405.57 129.37C3405.67 129.461 3405.81 129.542 3406 129.613C3406.03 129.651 3406.26 129.732 3406.69 129.856C3407.12 129.984 3407.48 130.098 3407.77 130.207V152.813H3399.22C3398.69 152.343 3398.1 151.81 3397.48 151.215C3396.85 150.621 3396.19 150.022 3395.49 149.427C3394.79 148.832 3394.07 148.243 3393.34 147.667C3392.6 147.092 3391.88 146.583 3391.16 146.15C3389.69 145.213 3388.17 144.414 3386.59 143.763C3385.02 143.111 3383.47 142.788 3381.97 142.788C3380.14 142.788 3378.44 143.139 3376.86 143.843C3375.29 144.547 3373.69 145.77 3372.08 147.501C3370.54 149.089 3369.3 151.325 3368.38 154.197C3367.44 157.07 3366.98 160.552 3366.98 164.632C3366.98 168.932 3367.47 172.494 3368.43 175.31C3369.4 178.125 3370.65 180.318 3372.19 181.868C3373.74 183.424 3375.36 184.532 3377.06 185.203C3378.76 185.873 3380.42 186.206 3382.03 186.206C3383.75 186.206 3385.44 185.864 3387.11 185.174C3388.77 184.489 3390.24 183.728 3391.49 182.896C3392.35 182.354 3393.28 181.64 3394.29 180.756C3395.29 179.871 3396.2 179.048 3397.03 178.287L3399.72 176.228H3407.78V198.344C3407.67 198.415 3407.45 198.534 3407.1 198.696C3406.77 198.857 3406.41 199.038 3406.03 199.238C3405.65 199.438 3405.27 199.618 3404.9 199.78C3404.52 199.942 3404.27 200.061 3404.12 200.132C3402.94 200.746 3401.5 201.416 3399.8 202.139C3398.09 202.862 3396.44 203.476 3394.82 203.984C3393.78 204.308 3392.64 204.636 3391.39 204.96C3390.13 205.283 3388.97 205.554 3387.89 205.773C3386.89 205.954 3385.67 206.087 3384.24 206.182C3382.79 206.277 3381.05 206.32 3379.01 206.32Z" fill="white"/>
<path d="M3491.53 204.86H3459.82L3444.18 180.576V204.86H3417.31V124.139H3444.18V146.746C3445.4 145.009 3446.66 143.178 3447.97 141.242C3449.28 139.311 3450.52 137.476 3451.71 135.74C3452.31 134.874 3452.97 133.942 3453.67 132.948C3454.36 131.954 3455.07 130.95 3455.79 129.937C3456.51 128.924 3457.21 127.92 3457.88 126.926C3458.56 125.932 3459.21 125 3459.82 124.135H3490.72L3462.83 161.917L3491.53 204.86Z" fill="white"/>
<path d="M3581.25 144.524H3551.21V152.439H3578.78V172.823H3551.21V204.861H3524.39V124.14H3581.25V144.524Z" fill="white"/>
<path d="M3648.36 163.335C3647.43 164.6 3646.29 165.884 3644.93 167.183C3643.56 168.486 3642.08 169.694 3640.47 170.816L3666.31 204.861H3634.28L3615.04 178.621V204.861H3588.22V124.14H3621.44C3623.73 124.14 3625.85 124.201 3627.81 124.33C3629.76 124.458 3631.6 124.691 3633.32 125.034C3635.04 125.376 3636.67 125.847 3638.21 126.441C3639.75 127.036 3641.22 127.788 3642.61 128.691C3644.16 129.742 3645.56 130.898 3646.84 132.158C3648.11 133.424 3649.19 134.831 3650.09 136.386C3650.99 137.942 3651.68 139.649 3652.16 141.509C3652.65 143.368 3652.89 145.438 3652.89 147.716C3652.89 150.679 3652.5 153.48 3651.73 156.12C3650.95 158.764 3649.83 161.166 3648.36 163.335ZM3625.47 150.051C3625.47 148.786 3625.3 147.701 3624.96 146.798C3624.62 145.894 3624.12 145.242 3623.48 144.848C3622.66 144.524 3621.68 144.296 3620.55 144.172C3619.43 144.044 3618.11 143.982 3616.6 143.982H3615.04V157.97H3615.69C3617.55 157.97 3619.11 157.851 3620.34 157.618C3621.57 157.385 3622.62 156.904 3623.49 156.182C3624.17 155.639 3624.67 154.907 3624.99 153.984C3625.31 153.061 3625.47 151.753 3625.47 150.051Z" fill="white"/>
<path d="M3699.42 204.861H3672.38V124.14H3699.42V204.861Z" fill="white"/>
<path d="M3781.26 164.581C3781.26 168.195 3780.85 171.672 3780.05 175.016C3779.24 178.359 3778.04 181.565 3776.42 184.637C3774.92 187.42 3773.13 189.988 3771.05 192.333C3768.97 194.683 3766.62 196.689 3764.01 198.35L3764.11 198.297C3762.14 199.705 3759.98 200.856 3757.61 201.741C3755.25 202.625 3752.72 203.32 3750.03 203.828C3747.77 204.152 3745.44 204.409 3743.02 204.589C3740.61 204.77 3738.04 204.861 3735.31 204.861H3708.38V124.14H3735.15C3737.84 124.14 3740.41 124.23 3742.89 124.411C3745.36 124.591 3747.71 124.824 3749.93 125.115C3752.51 125.514 3755.01 126.18 3757.43 127.122C3759.84 128.063 3762.11 129.219 3764.23 130.589C3766.77 132.358 3769.09 134.427 3771.19 136.795C3773.28 139.164 3775.07 141.785 3776.56 144.658C3778.04 147.53 3779.2 150.641 3780.02 153.979C3780.84 157.328 3781.26 160.861 3781.26 164.581ZM3751.97 153.142C3750.67 150.108 3748.71 147.797 3746.05 146.203V146.256C3744.3 145.281 3742.53 144.691 3740.76 144.496C3738.98 144.296 3737.16 144.196 3735.3 144.196V184.747C3736.41 184.747 3737.44 184.728 3738.39 184.695C3739.34 184.661 3740.28 184.604 3741.21 184.533C3741.99 184.5 3742.88 184.29 3743.87 183.91C3744.85 183.529 3745.83 183.016 3746.8 182.364L3746.69 182.416C3748.95 180.828 3750.71 178.521 3751.98 175.506C3753.26 172.49 3753.89 168.795 3753.89 164.419C3753.9 159.939 3753.25 156.177 3751.97 153.142Z" fill="white"/>
<path d="M3778.15 204.861L3804.38 124.145H3831.14L3857.21 204.861H3829.64L3825.12 189.627H3809.92C3809.02 192.157 3808.23 194.697 3807.55 197.241C3806.87 199.791 3806.11 202.33 3805.29 204.856H3778.15V204.861ZM3820.13 170.707L3817.28 158.888L3813.89 170.707H3820.13Z" fill="white"/>
<path d="M3919.49 124.14L3892.68 171.463V204.856H3865.8L3865.86 172.386C3864.1 169.17 3862.31 165.97 3860.51 162.793C3858.7 159.611 3856.83 156.362 3854.89 153.033C3853.96 151.444 3853.05 149.861 3852.18 148.291C3851.3 146.717 3850.4 145.119 3849.47 143.492C3848.64 142.118 3847.83 140.7 3847.05 139.235C3846.26 137.77 3845.46 136.32 3844.63 134.874C3844.24 134.223 3843.77 133.409 3843.23 132.434C3842.69 131.459 3842.13 130.456 3841.54 129.424C3840.95 128.391 3840.39 127.407 3839.85 126.47C3839.31 125.533 3838.88 124.753 3838.55 124.14H3868.76L3879.62 144.577C3880.26 143.273 3880.95 141.923 3881.69 140.51C3882.42 139.102 3883.13 137.766 3883.81 136.501C3884.78 134.584 3885.81 132.51 3886.9 130.265C3887.99 128.025 3889 125.985 3889.93 124.14H3919.49Z" fill="white"/>
<path d="M4778.08 329H6873.92C6897.15 329 6916 308.8 6916 283.882V45.1178C6916 20.2001 6897.15 0.000195708 6873.92 0.000193561L4778.08 0C4754.85 -2.1467e-06 4736 20.1999 4736 45.1177V283.882C4736 308.8 4754.85 329 4778.08 329Z" fill="url(#paint0_linear_17790_43462)"/>
</g>
</g>
<defs>
<linearGradient id="paint0_linear_17790_43462" x1="6916" y1="164.5" x2="4736" y2="164.5" gradientUnits="userSpaceOnUse">
<stop stop-opacity="0.12"/>
<stop offset="1" stop-color="#1C1A1C"/>
</linearGradient>
<clipPath id="clip0_17790_43462">
<rect width="6916" height="329" fill="white"/>
</clipPath>
</defs>
</svg>
